<svg data-v-0dd9719b="" version="1.0" xmlns="http://www.w3.org/2000/svg" xmlns:xlink="http://www.w3.org/1999/xlink" width="100%" height="100%" viewBox="0 0 340.000000 250.000000" preserveAspectRatio="xMidYMid meet" color-interpolation-filters="sRGB" style="margin: auto;"> <rect data-v-0dd9719b="" x="0" y="0" width="100%" height="100%" fill="#ffffff" fill-opacity="1" class="background"></rect> <rect data-v-0dd9719b="" x="0" y="0" width="100%" height="100%" fill="url(#watermark)" fill-opacity="1" class="watermarklayer"></rect> <g data-v-0dd9719b="" fill="#251f39" class="icon-text-wrapper icon-svg-group iconsvg" transform="translate(50.19999694824219,92.63788986206055)"><g class="iconsvg-imagesvg" transform="translate(0,0)"><g><rect fill="#251f39" fill-opacity="0" stroke-width="2" x="0" y="0" width="60.00000000000001" height="64.72422088219113" class="image-rect"></rect> <svg filter="url(#colors1613695550)" x="0" y="0" width="60.00000000000001" height="64.72422088219113" filtersec="colorsf7477051273" class="image-svg-svg primary" style="overflow: visible;"><svg xmlns="http://www.w3.org/2000/svg" viewBox="-0.007929801940917969 -0.0005078911781311035 73.65997314453125 79.45960998535156"><title>TLkuyY.tif</title><path d="M0 37.59V19.2c0-2.8.25-2.95 2.67-1.55 10.63 6.13 21.25 12.24 31.81 18.44a3.68 3.68 0 0 0 4.27.08c10.63-6.22 21.32-12.35 32-18.49 2.53-1.45 2.54-1.27 2.82 1.66.39 4.1-1.09 6.49-4.85 8.51-10 5.37-19.79 11.2-29.56 17a4.34 4.34 0 0 1-5-.07c-7.68-4.52-15.41-9-23.11-13.46-.47-.28-1-.53-1.42-.82-1.5-.95-1.87-.29-1.83 1.2v28.19c0 .85.32 1.95-.59 2.43S5.62 62 5 61.56C-.93 57.88.11 60 0 52.91V37.59z" fill="#000000"></path><path d="M14.35 62.93c0-4.64-.37-5.11 3.94-2.59 5.51 3.23 11.08 6.37 16.57 9.66a3.15 3.15 0 0 0 3.58 0q16.14-9.37 32.31-18.68c2.33-1.35 2.52-1.1 2.82 1.6.46 4.09-1 6.51-4.74 8.54C58.49 67.05 48.4 73.1 38.23 79a2.68 2.68 0 0 1-3 0C28.81 75.3 22.42 71.55 16 67.9c-2.36-1.32-1.37-3.44-1.65-4.97z" fill="#000000"></path><path d="M14.36 46.53c0-5.13-.25-5.49 4.13-2.88 5.2 3.1 10.51 6 15.72 9.11a4.11 4.11 0 0 0 4.82.08C49.46 46.68 60 40.68 70.47 34.63l1.26-.69c1.2-.64 1.86-.38 1.66 1.08a10.75 10.75 0 0 0 0 3 4.84 4.84 0 0 1-2.79 5.47C61.47 48.64 52.43 54 43.35 59.18c-1.65 1-3.33 1.86-4.92 2.9a2.8 2.8 0 0 1-3.36.05c-5.67-3.37-11.36-6.73-17.16-9.87-2.61-1.42-4.37-2.99-3.55-5.73zM58.81 13.08c.73 2.46-.78 4-3.21 5.3-5.71 3.15-11.31 6.49-16.89 9.87a3.4 3.4 0 0 1-4.13 0 46.74 46.74 0 0 0-3.67-2.19c-1.48-.8-1.35-1.39 0-2.19 6.76-3.87 13.45-7.79 20.16-11.68C53 11.1 54.85 10 56.72 8.94c1.47-.86 2.14-.47 2.1 1.23-.03.83-.01 1.63-.01 2.91zM44.17 4.53c.8 2.65-.91 4.2-3.44 5.6-5.78 3.2-11.43 6.61-17.1 10a2.39 2.39 0 0 1-2.82.09c-1.49-.94-3-1.78-4.61-2.62-1.34-.73-1.31-1.32 0-2.08 5.4-3.07 10.8-6.19 16.12-9.29 3.12-1.81 6.21-3.66 9.35-5.45 2.24-1.27 2.48-1.12 2.5 1.42z" fill="#000000"></path></svg></svg> <defs><filter id="colors1613695550"><feColorMatrix type="matrix" values="0 0 0 0 0.14453125  0 0 0 0 0.12109375  0 0 0 0 0.22265625  0 0 0 1 0" class="icon-fecolormatrix"></feColorMatrix></filter> <filter id="colorsf7477051273"><feColorMatrix type="matrix" values="0 0 0 0 0.99609375  0 0 0 0 0.99609375  0 0 0 0 0.99609375  0 0 0 1 0" class="icon-fecolormatrix"></feColorMatrix></filter> <filter id="colorsb2972100797"><feColorMatrix type="matrix" values="0 0 0 0 0  0 0 0 0 0  0 0 0 0 0  0 0 0 1 0" class="icon-fecolormatrix"></feColorMatrix></filter></defs></g></g> <g transform="translate(67.00000381469727,13.097110748291016)"><g data-gra="path-name" fill-rule="" class="tp-name iconsvg-namesvg"><g transform="scale(1)"><g><path d="M18.72-14.61L12.13-14.61 12.13 0 3.93 0 3.93-38.53 22.76-38.53Q30.85-38.53 34.02-36.45L34.02-36.45Q36.22-35.06 37.4-32.78 38.59-30.5 38.59-27.79L38.59-27.79Q38.59-22.3 35.82-19.29L35.82-19.29Q34.08-17.5 31.25-16.58L31.25-16.58Q33.5-15.77 34.66-14.87 35.82-13.98 36.74-12.25L36.74-12.25Q37.43-10.86 37.75-9.59 38.07-8.32 38.24-5.83L38.24-5.83Q38.59-1.68 39.17 0L39.17 0 29.98 0Q29.58-1.33 29.11-5.49L29.11-5.49Q28.83-8.84 27.93-10.63 27.03-12.42 25.24-13.46L25.24-13.46Q22.99-14.67 18.72-14.61L18.72-14.61ZM12.13-31.66L12.13-21.49 23.63-21.49Q26.51-21.49 27.73-22.36L27.73-22.36Q29.58-23.63 29.58-26.8L29.58-26.8Q29.58-30.33 26.8-31.31L26.8-31.31Q25.82-31.66 23.63-31.66L23.63-31.66 12.13-31.66ZM56.09-6.01L63.37-6.01 63.37-28.13 71.11-28.13 71.11 0 55.86 0Q52.57 0 50.78-0.49 48.99-0.98 47.6-2.25L47.6-2.25Q44.65-4.91 44.65-10.86L44.65-10.86 44.65-28.13 52.34-28.13 52.34-10.05Q52.34-8.15 53.35-7.08 54.36-6.01 56.09-6.01L56.09-6.01ZM78.68 0L78.68-28.13 86.42-28.13 86.42 0 78.68 0ZM86.42-31.02L78.68-31.02 78.68-38.53 86.42-38.53 86.42-31.02ZM96.35 0L96.35-22.12 91.33-22.12 91.33-28.13 96.35-28.13 96.35-29.81Q96.35-34.37 98.29-36.45 100.22-38.53 104.56-38.53L104.56-38.53 111.32-38.53 111.32-32.52 107.39-32.52Q104.04-32.64 104.09-29.4L104.09-29.4 104.09-28.13 111.37-28.13 111.37-22.12 104.09-22.12 104.09 0 96.35 0ZM125.93-17.1L135.4-17.1Q135.4-20.04 134.22-21.08 133.04-22.12 129.51-22.12L129.51-22.12 116.46-22.12 116.46-28.13 129.51-28.13Q133.04-28.13 134.36-27.99 135.69-27.84 137.08-27.44L137.08-27.44Q143.49-25.01 143.15-15.83L143.15-15.83 143.15 0 126.85 0Q122.46 0 120.79-0.26 119.11-0.52 117.84-1.33L117.84-1.33Q114.44-3.64 114.44-8.32L114.44-8.32Q114.44-11.15 115.79-13.37 117.15-15.6 119.4-16.41L119.4-16.41Q121.37-17.1 125.93-17.1L125.93-17.1ZM135.4-6.01L135.4-11.09 126.51-11.09 125.18-11.09Q123.85-11.09 123.07-10.4 122.29-9.7 122.29-8.49L122.29-8.49Q122.29-7.16 123.24-6.59 124.2-6.01 126.51-6.01L126.51-6.01 135.4-6.01ZM150.37 0L150.37-28.13 165.27-28.13Q168.62-28.13 170.38-27.64 172.14-27.15 173.59-25.88L173.59-25.88Q176.53-23.16 176.53-17.33L176.53-17.33 176.53 0 168.79 0 168.79-18.2Q168.79-20.28 167.87-21.2 166.94-22.12 164.81-22.12L164.81-22.12 158.11-22.12 158.11 0 150.37 0Z" transform="translate(-3.930000066757202, 38.529998779296875)"></path></g> <!----> <!----> <!----> <!----> <!----> <!----> <!----></g></g> <!----></g></g><defs v-gra="od"></defs></svg>